<?xml version="1.0" encoding="utf-8"?>
<!-- Generator: Adobe Illustrator 19.2.0, SVG Export Plug-In . SVG Version: 6.00 Build 0)  -->
<svg version="1.1" id="Layer_1" xmlns="http://www.w3.org/2000/svg" xmlns:xlink="http://www.w3.org/1999/xlink" x="0px" y="0px"
	 viewBox="0 0 306.1 39.1" style="enable-background:new 0 0 306.1 39.1;" xml:space="preserve">
<style type="text/css">
	.st0{fill:#7F8080;}
	.st1{fill:#2C4A6F;}
	.st2{fill:#808081;}
	.st3{fill:#0E405C;}
	.st4{fill:#626262;}
</style>
<g>
	<path class="st0" d="M68.3,35.1l0.1,2.2c-0.6,0.9-1.7,1.7-3.6,1.7c-3.1,0-5.2-1.8-5.2-4.7c0-2.9,2-4.6,5.2-4.6
		c1.4,0,2.5,0.3,3.2,0.7l0,2.2H68c-0.5-1.7-1.6-2.4-3-2.4c-2,0-3.3,1.6-3.3,4.1c0,2.5,1.2,4.1,3.1,4.2c2,0,3-0.9,3.4-3.4H68.3z"/>
	<path class="st0" d="M79.8,37.9c0.3,0.5,0.7,0.7,1.1,0.7H81v0.1h-4.1v-0.1H77c0.3,0,0.7-0.3,0.5-0.8l-0.6-1.6h-3l-0.7,1.6
		c-0.2,0.5,0.2,0.8,0.5,0.8h0.1v0.1h-2.7v-0.1h0.1c0.4,0,0.8-0.2,1.1-0.7l3-6.7c0.1-0.2,0.6-1.3,0.6-1.7H76L79.8,37.9z M76.7,35.8
		l-1.3-3.1l-1.3,3.1H76.7z"/>
	<path class="st0" d="M87.8,29.8c2.2,0,3.1,1.1,3.2,2.5c0.1,2.2-2.3,3.4-4.1,2.2l0-0.1c0,0,1.5,0.2,2-1.5c0.1-0.2,0.1-0.5,0.1-0.8
		c0-1.1-0.6-1.8-1.6-1.8h-0.9v7.5c0,0.4,0.4,0.8,0.8,0.8h0.2l0,0.1h-3.9l0-0.1h0.2c0.4,0,0.8-0.4,0.8-0.8v-7.2
		c0-0.4-0.4-0.7-0.8-0.7h-0.2l0-0.1L87.8,29.8z"/>
	<path class="st0" d="M98.2,38.8h-3.9l0-0.1h0.2c0.4,0,0.8-0.4,0.8-0.8v-7.1c0-0.4-0.4-0.8-0.8-0.8h-0.2l0-0.1h3.9l0,0.1H98
		c-0.4,0-0.8,0.4-0.8,0.8v7.1c0,0.4,0.4,0.8,0.8,0.8h0.2L98.2,38.8z"/>
	<path class="st0" d="M109.5,31.8l-0.1,0v-0.2c0-0.8-0.5-1.3-1.3-1.3h-1.7v7.5c0,0.4,0.4,0.8,0.8,0.8h0.2l0,0.1h-3.9l0-0.1h0.2
		c0.4,0,0.8-0.3,0.8-0.8v-7.5h-1.7c-0.8,0-1.3,0.5-1.3,1.3v0.2l-0.1,0v-2.2c0.2,0.1,1,0.2,1.5,0.2h5.2c0.6,0,1.3-0.1,1.5-0.2V31.8z"
		/>
	<path class="st0" d="M119.4,37.9c0.3,0.5,0.7,0.7,1.1,0.7h0.1v0.1h-4.1v-0.1h0.1c0.3,0,0.7-0.3,0.5-0.8l-0.6-1.6h-3l-0.7,1.6
		c-0.2,0.5,0.2,0.8,0.5,0.8h0.1v0.1h-2.7v-0.1h0.1c0.4,0,0.8-0.2,1.1-0.7l3-6.7c0.1-0.2,0.6-1.3,0.6-1.7h0.1L119.4,37.9z
		 M116.3,35.8l-1.3-3.1l-1.3,3.1H116.3z"/>
	<path class="st0" d="M129.8,38.8h-6.6l0-0.1h0.2c0.4,0,0.8-0.4,0.8-0.8v-7.1c0-0.4-0.4-0.8-0.8-0.8h-0.2l0-0.1h3.9l0,0.1h-0.2
		c-0.4,0-0.8,0.4-0.8,0.8v7.5h1.7c1.3,0,2.1-0.8,2.5-2.1h0.1L129.8,38.8z"/>
	<path class="st0" d="M149.5,37.9c0.1,0.5,0.5,0.8,0.9,0.8h0.2v0.1h-3.8v-0.1h0.2c0.3,0,0.5-0.3,0.5-0.5l-0.5-4.6l-2.4,4.1
		c0,0-0.5,0.8-0.5,1.4H144l-3.3-5.5l-0.5,4.6c0,0.3,0.2,0.5,0.5,0.5h0.2v0.1h-2.7v-0.1h0.2c0.5,0,0.9-0.3,0.9-0.8l1.1-8.2h0.1l4,6.5
		l3.8-6.5h0.1L149.5,37.9z"/>
	<path class="st0" d="M161.2,37.9c0.3,0.5,0.7,0.7,1.1,0.7h0.1v0.1h-4.1v-0.1h0.1c0.3,0,0.7-0.3,0.5-0.8l-0.6-1.6h-3l-0.7,1.6
		c-0.2,0.5,0.2,0.8,0.5,0.8h0.1v0.1h-2.7v-0.1h0.1c0.4,0,0.8-0.2,1.1-0.7l3-6.7c0.1-0.2,0.6-1.3,0.6-1.7h0.1L161.2,37.9z
		 M158.1,35.8l-1.3-3.1l-1.3,3.1H158.1z"/>
	<path class="st0" d="M175.1,29.8l0,0.1h-0.2c-0.4,0-0.8,0.3-0.8,0.8v6.6c0,1,0.1,1.6,0.1,1.6h-0.1l-6.5-6.2v5.1
		c0,0.4,0.4,0.8,0.8,0.8h0.2l0,0.1h-3.9l0-0.1h0.2c0.4,0,0.8-0.3,0.8-0.8v-6.7c0-1-0.1-1.6-0.1-1.6h0.1l6.5,6.2v-5.1
		c0-0.4-0.4-0.8-0.8-0.8h-0.2l0-0.1H175.1z"/>
	<path class="st0" d="M186.3,37.9c0.3,0.5,0.7,0.7,1.1,0.7h0.1v0.1h-4.1v-0.1h0.1c0.3,0,0.7-0.3,0.5-0.8l-0.6-1.6h-3l-0.7,1.6
		c-0.2,0.5,0.2,0.8,0.5,0.8h0.1v0.1h-2.7v-0.1h0.1c0.4,0,0.8-0.2,1.1-0.7l3-6.7c0.1-0.2,0.6-1.3,0.6-1.7h0.1L186.3,37.9z
		 M183.1,35.8l-1.3-3.1l-1.3,3.1H183.1z"/>
	<path class="st0" d="M199.8,34.6c-0.4,0-0.6,0.2-0.6,0.6v2.1c-0.6,0.8-2.2,1.6-4.2,1.6c-2.9,0-4.8-1.8-4.8-4.7
		c0-2.9,1.9-4.6,4.9-4.6c1.4,0,2.8,0.3,3.5,0.7l0,2.2h-0.1c-0.5-1.7-1.7-2.4-3.1-2.4c-2.1,0-3.2,1.6-3.2,4.2c0,2.5,1,4.1,2.9,4.1
		c0.9,0,1.9-0.5,2.2-1.3v-2c0-0.4-0.2-0.6-0.7-0.6h-0.2v-0.1h3.6v0.1H199.8z"/>
	<path class="st0" d="M209.7,38.8h-6.6l0-0.1h0.2c0.4,0,0.8-0.4,0.8-0.8v-7.1c0-0.4-0.4-0.8-0.8-0.8h-0.2l0-0.1h4.9
		c0.6,0,1.3-0.1,1.5-0.2v2.2l-0.1,0v-0.2c0-0.8-0.5-1.3-1.3-1.3H206v3.7h1.7c0.6,0,1.1-0.5,1.1-1.1v-0.1l0.1,0v3l-0.1,0v-0.1
		c0-0.6-0.5-1.1-1.1-1.1H206v3.6h1.7c1.3,0,2.1-0.8,2.5-2.1h0.1L209.7,38.8z"/>
	<path class="st0" d="M224.3,37.9c0.1,0.5,0.5,0.8,0.9,0.8h0.2v0.1h-3.8v-0.1h0.2c0.3,0,0.5-0.3,0.5-0.5l-0.5-4.6l-2.4,4.1
		c0,0-0.5,0.8-0.5,1.4h-0.1l-3.3-5.5l-0.5,4.6c0,0.3,0.2,0.5,0.5,0.5h0.2v0.1h-2.7v-0.1h0.2c0.5,0,0.9-0.3,0.9-0.8l1.1-8.2h0.1
		l4,6.5l3.8-6.5h0.1L224.3,37.9z"/>
	<path class="st0" d="M234.8,38.8h-6.6l0-0.1h0.2c0.4,0,0.8-0.4,0.8-0.8v-7.1c0-0.4-0.4-0.8-0.8-0.8h-0.2l0-0.1h4.9
		c0.6,0,1.3-0.1,1.5-0.2v2.2l-0.1,0v-0.2c0-0.8-0.5-1.3-1.3-1.3h-2.2v3.7h1.7c0.6,0,1.1-0.5,1.1-1.1v-0.1l0.1,0v3l-0.1,0v-0.1
		c0-0.6-0.5-1.1-1.1-1.1h-1.7v3.6h1.7c1.3,0,2.1-0.8,2.5-2.1h0.1L234.8,38.8z"/>
	<path class="st0" d="M248.8,29.8l0,0.1h-0.2c-0.4,0-0.8,0.3-0.8,0.8v6.6c0,1,0.1,1.6,0.1,1.6h-0.1l-6.5-6.2v5.1
		c0,0.4,0.4,0.8,0.8,0.8h0.2l0,0.1h-3.9l0-0.1h0.2c0.4,0,0.8-0.3,0.8-0.8v-6.7c0-1-0.1-1.6-0.1-1.6h0.1l6.5,6.2v-5.1
		c0-0.4-0.4-0.8-0.8-0.8H245l0-0.1H248.8z"/>
	<path class="st0" d="M260,31.8l-0.1,0v-0.2c0-0.8-0.5-1.3-1.3-1.3h-1.7v7.5c0,0.4,0.4,0.8,0.8,0.8h0.2l0,0.1h-3.9l0-0.1h0.2
		c0.4,0,0.8-0.3,0.8-0.8v-7.5h-1.7c-0.8,0-1.3,0.5-1.3,1.3v0.2l-0.1,0v-2.2c0.2,0.1,1,0.2,1.5,0.2h5.2c0.6,0,1.3-0.1,1.5-0.2V31.8z"
		/>
</g>
<g>
	<path class="st1" d="M86.3,0.5v0.3h-0.2c-0.8,0-2,0.5-2.4,1.7L79.1,17c0,0-0.6,1.7-0.6,3.1h-0.3L72.6,4.4L68.5,17
		c0,0-0.5,1.7-0.6,3.1h-0.3L61.4,2.5c-0.5-1.2-1.6-1.7-2.4-1.7h-0.2V0.5h6.1v0.3h-0.2c-0.7,0-1.4,0.6-1.1,1.7l4.2,13.4l5.1-15.8
		l0.3,0l5.4,15.2l3.7-12.9c0.3-1.1-0.3-1.6-1.1-1.6h-0.2V0.5L86.3,0.5z"/>
	<path class="st1" d="M107.6,19.8l0-0.3h0.3c1,0,1.7-0.8,1.8-1.7v-7.1H98.5v7.1c0,1,0.8,1.7,1.8,1.7h0.3l0,0.3h-6l0-0.3h0.3
		c1,0,1.7-0.8,1.8-1.7V2.5c0-1-0.8-1.7-1.8-1.7h-0.3l0-0.3h6l0,0.3h-0.3c-1,0-1.7,0.8-1.8,1.7v7.3h11.2V2.5c0-0.9-0.8-1.7-1.8-1.7
		h-0.3l0-0.3h6l0,0.3h-0.3c-1,0-1.7,0.8-1.8,1.7v15.2c0,1,0.8,1.7,1.8,1.7h0.3l0,0.3L107.6,19.8z"/>
	<path class="st1" d="M129.8,19.8h-6l0-0.3h0.3c1,0,1.7-0.8,1.8-1.7V2.5c0-1-0.8-1.7-1.8-1.7h-0.3l0-0.3h6l0,0.3h-0.3
		c-1,0-1.7,0.8-1.8,1.7v15.3c0,1,0.8,1.7,1.8,1.7h0.3L129.8,19.8z"/>
	<path class="st1" d="M151.4,0.5c1.2,0,2.8-0.3,3.3-0.5v3.5l-0.3,0V3c0-0.9-0.7-1.6-1.6-1.6h-5.2v16.5c0,0.9,0.8,1.7,1.8,1.7h0.3
		l0,0.3h-6l0-0.3h0.3c0.9,0,1.7-0.7,1.8-1.7V1.3h-5.2c-0.9,0-1.6,0.8-1.6,1.6v0.5l-0.3,0V0c0.5,0.2,2.1,0.5,3.3,0.5H151.4z"/>
	<path class="st1" d="M175.2,19.8h-11.4l0-0.3h0.3c1,0,1.7-0.8,1.8-1.7V2.4c-0.1-0.9-0.8-1.6-1.8-1.6h-0.3l0-0.3h8
		c1.2,0,2.8-0.3,3.3-0.5v0.8v0.5v2.2l-0.3,0V3c0-0.9-0.7-1.6-1.5-1.6h-5.6v8.5h4.6c0.7,0,1.3-0.6,1.3-1.4V8.1l0.3,0v4.3l-0.3,0V12
		c0-0.7-0.6-1.3-1.3-1.4h-4.7v8.2h3.9c2.9,0,4-1.5,4.9-3.6h0.3L175.2,19.8z"/>
	<path class="st1" d="M204.4,11.7l-0.3,4.3c-1.4,2.4-3.9,4.1-7.7,4.1c-5.7,0-9.8-4-9.8-10c0-6,3.9-10,10-10c2.7,0,4.9,0.8,6.5,1.9
		l0.6,3.9h-0.2c-0.8-3.2-3.5-4.9-6.8-4.9c-4.8,0-7.9,3.7-7.9,9.1c0,5.5,3.1,9.1,7.8,9.2c3.9,0,7.2-2,7.8-7.6H204.4z"/>
	<path class="st1" d="M221.6,0.5c3.3,0,5.4,2,5.4,5.2c0,2.7-2,5.2-4.7,5.2c0.6,0.3,1.4,1.2,2,1.9c0,0,2.4,3.4,3.4,4.5
		c1.1,1.2,2.1,2.1,3.7,2.1v0.3H230c-2.6,0-3.9-1.4-4.8-2.4c-0.3-0.4-3.4-4.9-3.6-5.1c-0.7-0.9-1.5-1.9-2.5-1.9v-0.3c0,0,0.6,0,1.5,0
		c1.4,0,3.5-0.4,4.3-2.9c0.1-0.4,0.2-1,0.2-1.6c-0.1-2.5-1.4-4.1-3.4-4.2c-1.4-0.1-3.1,0-3.4,0v16.4c0,1,0.8,1.7,1.8,1.7h0.3l0,0.3
		h-6l0-0.3h0.3c1,0,1.7-0.8,1.8-1.7V2.5c0-1-0.8-1.7-1.8-1.7h-0.3l0-0.3L221.6,0.5z"/>
	<path class="st1" d="M259.7,10.1c0,6-4,10-9.9,10c-5.8,0-9.9-4-9.9-10c0-6,4-10,9.9-10C255.7,0.1,259.7,4.1,259.7,10.1z
		 M257.6,10.1c0-5.5-3.1-9.2-7.8-9.2c-4.7,0-7.8,3.7-7.8,9.2s3.1,9.2,7.8,9.2C254.5,19.3,257.6,15.7,257.6,10.1z"/>
	<path class="st1" d="M280.9,0.8v0.5v1.8l-0.3,0V2.7c0-0.7-0.6-1.3-1.3-1.4h-5.8v8.5h4.6c0.7,0,1.3-0.6,1.3-1.4V8.1l0.3,0v4.3
		l-0.3,0V12c0-0.7-0.6-1.3-1.3-1.4h-4.7v7.1c0,1,0.8,1.7,1.8,1.7h0.3l0,0.3h-6l0-0.3h0.3c1,0,1.7-0.8,1.8-1.7V2.4
		c0-0.9-0.8-1.6-1.8-1.6h-0.3l0-0.3h8c1.2,0,2.8-0.3,3.3-0.5V0.8z"/>
	<path class="st1" d="M302.8,0.5c1.2,0,2.8-0.3,3.3-0.5v3.5l-0.3,0V3c0-0.9-0.7-1.6-1.6-1.6h-5.2v16.5c0,0.9,0.8,1.7,1.8,1.7h0.3
		l0,0.3h-6l0-0.3h0.3c0.9,0,1.7-0.7,1.8-1.7V1.3h-5.2c-0.9,0-1.6,0.8-1.6,1.6v0.5l-0.3,0V0c0.5,0.2,2.1,0.5,3.3,0.5H302.8z"/>
</g>
<g>
	<polygon class="st2" points="0,0.5 16.1,39.1 19.9,39.1 35.8,0.5 26.1,0.5 27.3,4.1 30.4,4 19.8,29.7 7.4,0.5 	"/>
	<polygon class="st3" points="15.9,0.5 31.9,39.1 35.8,39.1 51.6,0.5 47.8,0.5 35.7,29.7 23.3,0.5 	"/>
	<polygon class="st4" points="22.7,22.7 23.9,19.8 25.9,24.5 24.7,27.3 	"/>
</g>
</svg>
